<svg xmlns="http://www.w3.org/2000/svg" viewBox="0 0 443 366">
<g fill="#A020F0" stroke="none">
<polygon points="160.0,349.5 159.0,349.5 158.0,349.5 157.0,349.5 156.0,349.5 155.0,349.5 154.0,349.5 153.0,349.5 152.0,349.5 151.0,349.5 150.0,349.5 149.0,349.5 148.5,349.0 148.0,348.5 147.0,348.5 146.0,348.5 145.5,348.0 145.0,347.5 144.0,347.5 143.5,347.0 143.0,346.5 142.0,346.5 141.5,346.0 141.0,345.5 140.5,345.0 140.0,344.5 139.0,344.5 138.5,344.0 138.0,343.5 137.5,343.0 137.0,342.5 136.5,342.0 136.0,341.5 135.5,341.0 135.0,340.5 134.5,340.0 134.0,339.5 133.5,339.0 133.5,338.0 133.0,337.5 132.5,337.0 132.0,336.5 131.5,336.0 131.0,335.5 130.5,335.0 130.5,334.0 130.0,333.5 129.5,333.0 129.5,332.0 129.0,331.5 128.5,331.0 128.0,330.5 127.5,330.0 127.5,329.0 127.0,328.5 126.5,328.0 126.5,327.0 126.0,326.5 125.5,326.0 125.5,325.0 125.5,324.0 125.0,323.5 124.5,323.0 124.5,322.0 124.0,321.5 123.5,321.0 123.5,320.0 123.5,319.0 123.0,318.5 122.5,318.0 122.5,317.0 122.5,316.0 122.0,315.5 121.5,315.0 121.5,314.0 121.0,313.5 120.5,313.0 120.5,312.0 120.5,311.0 120.5,310.0 120.0,309.5 119.5,309.0 119.5,308.0 119.0,307.5 118.5,307.0 118.5,306.0 118.5,305.0 118.5,304.0 118.0,303.5 117.5,303.0 117.5,302.0 117.5,301.0 117.5,300.0 117.0,299.5 116.5,299.0 116.5,298.0 116.5,297.0 116.0,296.5 115.5,296.0 115.5,295.0 115.5,294.0 115.5,293.0 115.5,292.0 115.0,291.5 114.5,291.0 114.5,290.0 114.5,289.0 114.5,288.0 114.0,287.5 113.5,287.0 113.5,286.0 113.5,285.0 113.5,284.0 113.5,283.0 113.5,282.0 113.0,281.5 112.5,281.0 112.5,280.0 112.5,279.0 112.5,278.0 112.0,277.5 111.5,277.0 111.5,276.0 111.5,275.0 111.5,274.0 111.5,273.0 111.5,272.0 111.5,271.0 111.0,270.5 110.5,270.0 110.5,269.0 110.5,268.0 110.5,267.0 110.5,266.0 110.0,265.5 109.5,265.0 109.5,264.0 109.5,263.0 109.5,262.0 109.5,261.0 109.5,260.0 109.0,259.5 108.5,259.0 108.5,258.0 108.5,257.0 108.5,256.0 108.5,255.0 108.5,254.0 108.0,253.5 107.5,254.0 107.0,254.5 106.0,254.5 105.0,254.5 104.0,254.5 103.0,254.5 102.0,254.5 101.0,254.5 100.5,254.0 100.0,253.5 99.0,253.5 98.0,253.5 97.5,253.0 97.0,252.5 96.0,252.5 95.5,252.0 95.0,251.5 94.5,251.0 94.0,250.5 93.0,250.5 92.5,250.0 92.5,249.0 92.0,248.5 91.5,248.0 91.0,247.5 90.5,247.0 90.0,246.5 89.5,246.0 89.5,245.0 89.0,244.5 88.5,244.0 88.0,243.5 87.5,243.0 87.5,242.0 87.5,241.0 87.0,240.5 86.5,240.0 86.5,239.0 86.5,238.0 86.0,237.5 85.5,237.0 85.5,236.0 85.5,235.0 85.5,234.0 85.5,233.0 85.5,232.0 85.5,231.0 85.5,230.0 85.5,229.0 85.5,228.0 85.5,227.0 86.0,226.5 86.5,226.0 86.0,225.5 85.0,225.5 84.0,225.5 83.5,226.0 83.0,226.5 82.0,226.5 81.0,226.5 80.0,226.5 79.0,226.5 78.0,226.5 77.5,227.0 77.0,227.5 76.0,227.5 75.0,227.5 74.0,227.5 73.0,227.5 72.0,227.5 71.0,227.5 70.0,227.5 69.0,227.5 68.0,227.5 67.0,227.5 66.0,227.5 65.0,227.5 64.5,227.0 64.0,226.5 63.0,226.5 62.0,226.5 61.0,226.5 60.0,226.5 59.5,227.0 59.0,227.5 58.0,227.5 57.0,227.5 56.0,227.5 55.0,227.5 54.0,227.5 53.0,227.5 52.0,227.5 51.0,227.5 50.0,227.5 49.0,227.5 48.5,228.0 48.0,228.5 47.0,228.5 46.0,228.5 45.0,228.5 44.0,228.5 43.0,228.5 42.0,228.5 41.0,228.5 40.0,228.5 39.0,228.5 38.0,228.5 37.0,228.5 36.5,228.0 36.0,227.5 35.0,227.5 34.0,227.5 33.0,227.5 32.5,227.0 32.0,226.5 31.0,226.5 30.5,226.0 30.0,225.5 29.0,225.5 28.5,225.0 28.0,224.5 27.5,224.0 27.0,223.5 26.0,223.5 25.5,223.0 25.0,222.5 24.5,222.0 24.0,221.5 23.5,221.0 23.0,220.5 22.5,220.0 22.0,219.5 21.5,219.0 21.0,218.5 20.5,218.0 20.0,217.5 19.5,217.0 19.0,216.5 18.5,216.0 18.0,215.5 17.5,215.0 17.5,214.0 17.0,213.5 16.5,213.0 16.0,212.5 15.5,212.0 15.5,211.0 15.0,210.5 14.5,210.0 14.5,209.0 14.0,208.5 13.5,208.0 13.5,207.0 13.0,206.5 12.5,206.0 12.5,205.0 12.5,204.0 12.0,203.5 11.5,203.0 11.5,202.0 11.5,201.0 11.0,200.5 10.5,200.0 10.5,199.0 10.5,198.0 10.5,197.0 10.0,196.5 9.5,196.0 9.5,195.0 9.5,194.0 9.5,193.0 9.5,192.0 9.5,191.0 9.5,190.0 9.0,189.5 8.5,189.0 8.5,188.0 8.5,187.0 8.5,186.0 8.5,185.0 8.5,184.0 8.5,183.0 8.5,182.0 8.5,181.0 8.5,180.0 8.5,179.0 8.5,178.0 8.5,177.0 8.5,176.0 9.0,175.5 9.5,175.0 9.5,174.0 9.5,173.0 9.5,172.0 9.5,171.0 9.5,170.0 9.5,169.0 10.0,168.5 10.5,168.0 10.5,167.0 10.5,166.0 11.0,165.5 11.5,165.0 11.5,164.0 11.5,163.0 12.0,162.5 12.5,162.0 12.5,161.0 13.0,160.5 13.5,160.0 13.5,159.0 14.0,158.5 14.5,158.0 14.5,157.0 15.0,156.5 15.5,156.0 15.5,155.0 16.0,154.5 16.5,154.0 17.0,153.5 17.5,153.0 18.0,152.5 18.5,152.0 18.5,151.0 19.0,150.5 19.5,150.0 20.0,149.5 20.5,149.0 21.0,148.5 21.5,148.0 22.0,147.5 22.5,147.0 23.0,146.5 24.0,146.5 24.5,146.0 25.0,145.5 25.5,145.0 26.0,144.5 26.5,144.0 27.0,143.5 27.5,143.0 28.0,142.5 29.0,142.5 29.5,142.0 30.0,141.5 30.5,141.0 31.0,140.5 32.0,140.5 32.5,140.0 33.0,139.5 34.0,139.5 34.5,139.0 35.0,138.5 36.0,138.5 36.5,138.0 37.0,137.5 38.0,137.5 38.5,137.0 39.0,136.5 40.0,136.5 41.0,136.5 42.0,136.5 42.5,136.0 43.0,135.5 44.0,135.5 45.0,135.5 45.5,135.0 46.0,134.5 47.0,134.5 47.5,134.0 48.0,133.5 49.0,133.5 49.5,133.0 50.0,132.5 51.0,132.5 52.0,132.5 52.5,132.0 53.0,131.5 54.0,131.5 54.5,131.0 55.0,130.5 56.0,130.5 56.5,130.0 57.0,129.5 58.0,129.5 59.0,129.5 59.5,129.0 60.0,128.5 61.0,128.5 62.0,128.5 62.5,128.0 63.0,127.5 64.0,127.5 65.0,127.5 65.5,127.0 66.0,126.5 67.0,126.5 67.5,126.0 68.0,125.5 69.0,125.5 70.0,125.5 71.0,125.5 71.5,125.0 72.0,124.5 73.0,124.5 74.0,124.5 74.5,124.0 75.0,123.5 76.0,123.5 77.0,123.5 78.0,123.5 78.5,123.0 79.0,122.5 80.0,122.5 81.0,122.5 82.0,122.5 82.5,122.0 83.0,121.5 84.0,121.5 85.0,121.5 85.5,121.0 86.0,120.5 87.0,120.5 88.0,120.5 88.5,120.0 89.0,119.5 90.0,119.5 91.0,119.5 92.0,119.5 92.5,119.0 93.0,118.5 94.0,118.5 95.0,118.5 95.5,118.0 96.0,117.5 97.0,117.5 98.0,117.5 99.0,117.5 99.5,117.0 100.0,116.5 101.0,116.5 102.0,116.5 102.5,116.0 103.0,115.5 104.0,115.5 105.0,115.5 105.5,115.0 106.0,114.5 107.0,114.5 108.0,114.5 109.0,114.5 109.5,114.0 110.0,113.5 111.0,113.5 112.0,113.5 112.5,113.0 113.0,112.5 114.0,112.5 115.0,112.5 116.0,112.5 116.5,112.0 117.0,111.5 118.0,111.5 119.0,111.5 119.5,111.0 120.0,110.5 121.0,110.5 122.0,110.5 123.0,110.5 123.5,110.0 124.0,109.5 125.0,109.5 126.0,109.5 126.5,109.0 127.0,108.5 128.0,108.5 129.0,108.5 129.5,108.0 130.0,107.5 131.0,107.5 132.0,107.5 132.5,107.0 133.0,106.5 134.0,106.5 135.0,106.5 135.5,106.0 136.0,105.5 137.0,105.5 138.0,105.5 139.0,105.5 139.5,105.0 140.0,104.5 141.0,104.5 142.0,104.5 142.5,104.0 143.0,103.5 144.0,103.5 145.0,103.5 145.5,103.0 146.0,102.5 147.0,102.5 147.5,102.0 148.0,101.5 149.0,101.5 150.0,101.5 150.5,101.0 151.0,100.5 152.0,100.5 153.0,100.5 153.5,100.0 154.0,99.5 155.0,99.5 155.5,99.0 156.0,98.5 157.0,98.5 158.0,98.5 158.5,98.0 159.0,97.5 160.0,97.5 160.5,97.0 161.0,96.5 162.0,96.5 163.0,96.5 163.5,96.0 164.0,95.5 165.0,95.5 165.5,95.0 166.0,94.5 167.0,94.5 167.5,94.0 168.0,93.5 169.0,93.5 169.5,93.0 170.0,92.5 171.0,92.5 171.5,92.0 172.0,91.5 173.0,91.5 174.0,91.5 174.5,91.0 175.0,90.5 175.5,90.0 176.0,89.5 177.0,89.5 177.5,89.0 178.0,88.5 179.0,88.5 179.5,88.0 180.0,87.5 181.0,87.5 181.5,87.0 182.0,86.5 183.0,86.5 183.5,86.0 184.0,85.5 185.0,85.5 185.5,85.0 186.0,84.5 187.0,84.5 187.5,84.0 188.0,83.5 188.5,83.0 189.0,82.5 190.0,82.5 190.5,82.0 191.0,81.5 191.5,81.0 192.0,80.5 193.0,80.5 193.5,80.0 194.0,79.5 195.0,79.5 195.5,79.0 196.0,78.5 196.5,78.0 197.0,77.5 198.0,77.5 198.5,77.0 199.0,76.5 199.5,76.0 200.0,75.5 201.0,75.5 201.5,75.0 202.0,74.5 202.5,74.0 203.0,73.5 204.0,73.5 204.5,73.0 205.0,72.5 205.5,72.0 206.0,71.5 207.0,71.5 207.5,71.0 208.0,70.5 208.5,70.0 209.0,69.5 210.0,69.5 210.5,69.0 211.0,68.5 211.5,68.0 212.0,67.5 212.5,67.0 213.0,66.5 213.5,66.0 214.0,65.5 215.0,65.5 215.5,65.0 216.0,64.5 216.5,64.0 217.0,63.5 217.5,63.0 218.0,62.5 218.5,62.0 219.0,61.5 220.0,61.5 220.5,61.0 221.0,60.5 221.5,60.0 222.0,59.5 222.5,59.0 223.0,58.5 223.5,58.0 224.0,57.5 224.5,57.0 225.0,56.5 225.5,56.0 226.0,55.5 226.5,55.0 227.0,54.5 227.5,54.0 228.0,53.5 228.5,53.0 229.0,52.5 229.5,52.0 230.0,51.5 230.5,51.0 231.0,50.5 231.5,50.0 232.0,49.5 232.5,49.0 233.0,48.5 233.5,48.0 234.0,47.5 234.5,47.0 235.0,46.5 235.5,46.0 236.0,45.5 236.5,45.0 237.0,44.5 237.5,44.0 238.0,43.5 238.5,43.0 239.0,42.5 239.5,42.0 240.0,41.5 240.5,41.0 241.0,40.5 241.5,40.0 242.0,39.5 242.5,39.0 242.5,38.0 243.0,37.5 243.5,37.0 244.0,36.5 244.5,36.0 245.0,35.5 245.5,35.0 246.0,34.5 246.5,34.0 246.5,33.0 247.0,32.5 247.5,32.0 248.0,31.5 248.5,31.0 249.0,30.5 249.5,30.0 250.0,29.5 250.5,29.0 250.5,28.0 251.0,27.5 251.5,27.0 252.0,26.5 252.5,26.0 253.0,25.5 253.5,25.0 254.0,24.5 254.5,24.0 254.5,23.0 255.0,22.5 255.5,22.0 256.0,21.5 256.5,21.0 257.0,20.5 257.5,20.0 258.0,19.5 258.5,19.0 259.0,18.5 259.5,18.0 260.0,17.5 261.0,17.5 261.5,17.0 262.0,16.5 262.5,16.0 263.0,15.5 263.5,15.0 264.0,14.5 265.0,14.5 265.5,14.0 266.0,13.5 266.5,13.0 267.0,12.5 268.0,12.5 268.5,12.0 269.0,11.5 270.0,11.5 270.5,11.0 271.0,10.5 272.0,10.5 273.0,10.5 273.5,10.0 274.0,9.5 275.0,9.5 276.0,9.5 276.5,9.0 277.0,8.5 278.0,8.5 279.0,8.5 280.0,8.5 281.0,8.5 282.0,8.5 283.0,8.5 284.0,8.5 285.0,8.5 286.0,8.5 287.0,8.5 288.0,8.5 289.0,8.5 290.0,8.5 291.0,8.5 292.0,8.5 292.5,9.0 293.0,9.5 294.0,9.5 295.0,9.5 295.5,10.0 296.0,10.5 297.0,10.5 298.0,10.5 298.5,11.0 299.0,11.5 300.0,11.5 300.5,12.0 301.0,12.5 302.0,12.5 302.5,13.0 303.0,13.5 304.0,13.5 304.5,14.0 305.0,14.5 305.5,15.0 306.0,15.5 307.0,15.5 307.5,16.0 308.0,16.5 308.5,17.0 309.0,17.5 309.5,18.0 310.0,18.5 310.5,19.0 311.0,19.5 311.5,20.0 312.0,20.5 312.5,21.0 313.0,21.5 314.0,21.5 314.5,22.0 314.5,23.0 315.0,23.5 315.5,24.0 316.0,24.5 316.5,25.0 317.0,25.5 317.5,26.0 318.0,26.5 318.5,27.0 319.0,27.5 319.5,28.0 320.0,28.5 320.5,29.0 320.5,30.0 321.0,30.5 321.5,31.0 322.0,31.5 322.5,32.0 323.0,32.5 323.5,33.0 323.5,34.0 324.0,34.5 324.5,35.0 325.0,35.5 325.5,36.0 326.0,36.5 326.5,37.0 326.5,38.0 327.0,38.5 327.5,39.0 328.0,39.5 328.5,40.0 328.5,41.0 329.0,41.5 329.5,42.0 330.0,42.5 330.5,43.0 330.5,44.0 331.0,44.5 331.5,45.0 331.5,46.0 332.0,46.5 332.5,47.0 332.5,48.0 333.0,48.5 333.5,49.0 334.0,49.5 334.5,50.0 334.5,51.0 335.0,51.5 335.5,52.0 335.5,53.0 336.0,53.5 336.5,54.0 336.5,55.0 337.0,55.5 337.5,56.0 337.5,57.0 338.0,57.5 338.5,58.0 338.5,59.0 339.0,59.5 339.5,60.0 339.5,61.0 340.0,61.5 340.5,62.0 340.5,63.0 340.5,64.0 341.0,64.5 341.5,65.0 341.5,66.0 342.0,66.5 342.5,67.0 342.5,68.0 343.0,68.5 343.5,69.0 343.5,70.0 344.0,70.5 344.5,71.0 344.5,72.0 344.5,73.0 345.0,73.5 345.5,74.0 345.5,75.0 346.0,75.5 346.5,76.0 346.5,77.0 346.5,78.0 347.0,78.5 347.5,79.0 347.5,80.0 348.0,80.5 348.5,81.0 348.5,82.0 348.5,83.0 349.0,83.5 349.5,84.0 349.5,85.0 349.5,86.0 350.0,86.5 350.5,87.0 350.5,88.0 351.0,88.5 351.5,89.0 351.5,90.0 351.5,91.0 352.0,91.5 352.5,92.0 352.5,93.0 352.5,94.0 353.0,94.5 353.5,95.0 353.5,96.0 353.5,97.0 354.0,97.5 354.5,98.0 354.5,99.0 354.5,100.0 355.0,100.5 355.5,101.0 355.5,102.0 355.5,103.0 356.0,103.5 356.5,104.0 356.5,105.0 356.5,106.0 356.5,107.0 357.0,107.5 357.5,108.0 357.5,109.0 357.5,110.0 358.0,110.5 358.5,111.0 358.5,112.0 358.5,113.0 358.5,114.0 359.0,114.5 359.5,115.0 359.5,116.0 359.5,117.0 360.0,117.5 360.5,118.0 360.5,119.0 360.5,120.0 360.5,121.0 361.0,121.5 361.5,122.0 361.5,123.0 361.5,124.0 361.5,125.0 362.0,125.5 362.5,126.0 362.5,127.0 362.5,128.0 363.0,128.5 363.5,129.0 363.5,130.0 363.5,131.0 363.5,132.0 363.5,133.0 363.5,134.0 364.0,134.5 364.5,135.0 364.5,136.0 364.5,137.0 365.0,137.5 365.5,138.0 365.5,139.0 365.5,140.0 365.5,141.0 365.5,142.0 365.5,143.0 366.0,143.5 366.5,144.0 366.5,145.0 366.5,146.0 366.5,147.0 367.0,147.5 367.5,148.0 367.5,149.0 367.5,150.0 367.5,151.0 367.5,152.0 368.0,152.5 368.5,153.0 368.5,154.0 368.5,155.0 368.5,156.0 368.5,157.0 368.5,158.0 368.5,159.0 369.0,159.5 369.5,160.0 369.5,161.0 369.5,162.0 369.5,163.0 369.5,164.0 369.5,165.0 369.5,166.0 370.0,166.5 370.5,167.0 370.5,168.0 370.5,169.0 370.5,170.0 370.5,171.0 370.5,172.0 370.5,173.0 370.5,174.0 370.5,175.0 370.5,176.0 370.5,177.0 371.0,177.5 371.5,178.0 371.5,179.0 371.5,180.0 371.5,181.0 371.5,182.0 371.5,183.0 371.5,184.0 371.5,185.0 371.5,186.0 371.5,187.0 371.5,188.0 371.5,189.0 371.5,190.0 371.5,191.0 371.5,192.0 371.5,193.0 371.5,194.0 371.5,195.0 371.0,195.5 370.5,196.0 370.5,197.0 370.5,198.0 370.5,199.0 370.5,200.0 370.5,201.0 370.5,202.0 370.0,202.5 369.5,203.0 369.5,204.0 369.5,205.0 369.5,206.0 369.0,206.5 368.5,207.0 368.5,208.0 368.5,209.0 368.0,209.5 367.5,210.0 367.5,211.0 367.0,211.5 366.5,212.0 366.5,213.0 366.0,213.5 365.5,214.0 365.5,215.0 365.0,215.5 364.5,216.0 364.0,216.5 363.5,217.0 363.5,218.0 363.0,218.5 362.5,219.0 362.0,219.5 361.5,220.0 361.0,220.5 360.5,221.0 360.0,221.5 359.5,222.0 359.0,222.5 358.5,223.0 358.0,223.5 357.5,224.0 357.0,224.5 356.5,225.0 356.0,225.5 355.5,226.0 355.0,226.5 354.0,226.5 353.5,227.0 353.0,227.5 352.0,227.5 351.5,228.0 351.0,228.5 350.5,229.0 350.0,229.5 349.0,229.5 348.0,229.5 347.5,230.0 347.0,230.5 346.0,230.5 345.0,230.5 344.0,230.5 343.5,231.0 343.0,231.5 342.0,231.5 341.0,231.5 340.0,231.5 339.0,231.5 338.0,231.5 337.0,231.5 336.0,231.5 335.0,231.5 334.0,231.5 333.0,231.5 332.0,231.5 331.0,231.5 330.0,231.5 329.5,231.0 329.0,230.5 328.0,230.5 327.0,230.5 326.5,230.0 326.0,229.5 325.0,229.5 324.0,229.5 323.0,229.5 322.5,229.0 322.0,228.5 321.0,228.5 320.5,228.0 320.0,227.5 319.0,227.5 318.5,227.0 318.0,226.5 317.0,226.5 316.5,226.0 316.0,225.5 315.0,225.5 314.5,225.0 314.0,224.5 313.5,224.0 313.0,223.5 312.0,223.5 311.5,223.0 311.0,222.5 310.5,222.0 310.0,221.5 309.0,221.5 308.5,221.0 308.0,220.5 307.5,220.0 307.0,219.5 306.5,219.0 306.0,218.5 305.5,218.0 305.0,217.5 304.0,217.5 303.5,217.0 303.0,216.5 302.5,216.0 302.0,215.5 301.5,215.0 301.0,214.5 300.0,214.5 299.5,214.0 299.0,213.5 298.0,213.5 297.0,213.5 296.0,213.5 295.5,213.0 295.0,212.5 294.0,212.5 293.0,212.5 292.0,212.5 291.5,212.0 291.0,211.5 290.0,211.5 289.0,211.5 288.5,211.0 288.0,210.5 287.0,210.5 286.0,210.5 285.0,210.5 284.0,210.5 283.5,210.0 283.0,209.5 282.0,209.5 281.0,209.5 280.0,209.5 279.5,209.0 279.0,208.5 278.0,208.5 277.0,208.5 276.0,208.5 275.0,208.5 274.0,208.5 273.5,208.0 273.0,207.5 272.0,207.5 271.0,207.5 270.0,207.5 269.0,207.5 268.5,207.0 268.0,206.5 267.0,206.5 266.0,206.5 265.0,206.5 264.0,206.5 263.5,206.0 263.0,205.5 262.0,205.5 261.0,205.5 260.0,205.5 259.0,205.5 258.0,205.5 257.0,205.5 256.0,205.5 255.0,205.5 254.0,205.5 253.0,205.5 252.5,205.0 252.0,204.5 251.0,204.5 250.0,204.5 249.0,204.5 248.0,204.5 247.0,204.5 246.0,204.5 245.0,204.5 244.0,204.5 243.0,204.5 242.0,204.5 241.0,204.5 240.0,204.5 239.5,204.0 239.0,203.5 238.0,203.5 237.0,203.5 236.0,203.5 235.0,203.5 234.0,203.5 233.0,203.5 232.0,203.5 231.0,203.5 230.0,203.5 229.0,203.5 228.0,203.5 227.0,203.5 226.0,203.5 225.0,203.5 224.0,203.5 223.0,203.5 222.0,203.5 221.0,203.5 220.0,203.5 219.0,203.5 218.0,203.5 217.0,203.5 216.0,203.5 215.0,203.5 214.0,203.5 213.0,203.5 212.0,203.5 211.0,203.5 210.0,203.5 209.0,203.5 208.0,203.5 207.5,204.0 207.0,204.5 206.0,204.5 205.0,204.5 204.0,204.5 203.0,204.5 202.0,204.5 201.0,204.5 200.0,204.5 199.0,204.5 198.0,204.5 197.0,204.5 196.0,204.5 195.0,204.5 194.0,204.5 193.5,205.0 193.0,205.5 192.0,205.5 191.0,205.5 190.0,205.5 189.0,205.5 188.0,205.5 187.0,205.5 186.0,205.5 185.0,205.5 184.0,205.5 183.0,205.5 182.0,205.5 181.0,205.5 180.0,205.5 179.5,206.0 179.0,206.5 178.0,206.5 177.5,207.0 178.0,207.5 178.5,208.0 179.0,208.5 180.0,208.5 180.5,209.0 181.0,209.5 181.5,210.0 182.0,210.5 182.5,211.0 183.0,211.5 184.0,211.5 184.5,212.0 185.0,212.5 185.5,213.0 186.0,213.5 187.0,213.5 187.5,214.0 188.0,214.5 188.5,215.0 189.0,215.5 189.5,216.0 190.0,216.5 190.5,217.0 191.0,217.5 192.0,217.5 192.5,218.0 192.5,219.0 193.0,219.5 193.5,220.0 194.0,220.5 194.5,221.0 195.0,221.5 195.5,222.0 196.0,222.5 196.5,223.0 197.0,223.5 197.5,224.0 198.0,224.5 198.5,225.0 198.5,226.0 199.0,226.5 199.5,227.0 200.0,227.5 200.5,228.0 200.5,229.0 200.5,230.0 201.0,230.5 201.5,231.0 201.5,232.0 201.5,233.0 202.0,233.5 202.5,234.0 202.5,235.0 202.5,236.0 202.5,237.0 202.5,238.0 202.0,238.5 201.5,239.0 201.5,240.0 201.5,241.0 201.0,241.5 200.5,242.0 200.5,243.0 200.0,243.5 199.5,244.0 199.0,244.5 198.5,245.0 198.0,245.5 197.5,246.0 197.0,246.5 196.5,247.0 196.0,247.5 195.5,248.0 195.5,249.0 195.5,250.0 196.0,250.5 196.5,251.0 196.5,252.0 197.0,252.5 197.5,253.0 197.5,254.0 198.0,254.5 198.5,255.0 198.5,256.0 199.0,256.5 199.5,257.0 199.5,258.0 200.0,258.5 200.5,259.0 201.0,259.5 201.5,260.0 201.5,261.0 202.0,261.5 202.5,262.0 202.5,263.0 203.0,263.5 203.5,264.0 204.0,264.5 204.5,265.0 204.5,266.0 205.0,266.5 205.5,267.0 205.5,268.0 206.0,268.5 206.5,269.0 207.0,269.5 207.5,270.0 207.5,271.0 208.0,271.5 208.5,272.0 208.5,273.0 209.0,273.5 209.5,274.0 209.5,275.0 210.0,275.5 210.5,276.0 211.0,276.5 211.5,277.0 211.5,278.0 212.0,278.5 212.5,279.0 212.5,280.0 213.0,280.5 213.5,281.0 214.0,281.5 214.5,282.0 214.5,283.0 215.0,283.5 215.5,284.0 215.5,285.0 216.0,285.5 216.5,286.0 217.0,286.5 217.5,287.0 217.5,288.0 218.0,288.5 218.5,289.0 218.5,290.0 219.0,290.5 219.5,291.0 220.0,291.5 220.5,292.0 220.5,293.0 221.0,293.5 221.5,294.0 221.5,295.0 222.0,295.5 222.5,296.0 222.5,297.0 223.0,297.5 223.5,298.0 223.5,299.0 224.0,299.5 224.5,300.0 224.5,301.0 225.0,301.5 225.5,302.0 225.5,303.0 226.0,303.5 226.5,304.0 226.5,305.0 226.5,306.0 226.5,307.0 226.5,308.0 226.5,309.0 226.5,310.0 226.5,311.0 226.0,311.5 225.5,312.0 225.5,313.0 225.0,313.5 224.5,314.0 224.5,315.0 224.0,315.5 223.5,316.0 223.5,317.0 223.0,317.5 222.5,318.0 222.0,318.5 221.5,319.0 221.0,319.5 220.5,320.0 220.0,320.5 219.5,321.0 219.0,321.5 218.5,322.0 218.0,322.5 217.5,323.0 217.0,323.5 216.0,323.5 215.5,324.0 215.0,324.5 214.5,325.0 214.0,325.5 213.5,326.0 213.0,326.5 212.0,326.5 211.5,327.0 211.0,327.5 210.5,328.0 210.0,328.5 209.0,328.5 208.5,329.0 208.0,329.5 207.0,329.5 206.5,330.0 206.0,330.5 205.0,330.5 204.5,331.0 204.0,331.5 203.0,331.5 202.5,332.0 202.0,332.5 201.0,332.5 200.5,333.0 200.0,333.5 199.0,333.5 198.0,333.5 197.5,334.0 197.0,334.5 196.5,335.0 196.0,335.5 195.0,335.5 194.0,335.5 193.5,336.0 193.0,336.5 192.0,336.5 191.5,337.0 191.0,337.5 190.0,337.5 189.5,338.0 189.0,338.5 188.0,338.5 187.0,338.5 186.5,339.0 186.0,339.5 185.0,339.5 184.5,340.0 184.0,340.5 183.0,340.5 182.0,340.5 181.5,341.0 181.0,341.5 180.0,341.5 179.5,342.0 179.0,342.5 178.0,342.5 177.5,343.0 177.0,343.5 176.0,343.5 175.0,343.5 174.5,344.0 174.0,344.5 173.0,344.5 172.5,345.0 172.0,345.5 171.0,345.5 170.0,345.5 169.5,346.0 169.0,346.5 168.0,346.5 167.0,346.5 166.5,347.0 166.0,347.5 165.0,347.5 164.0,347.5 163.5,348.0 163.0,348.5 162.0,348.5 161.0,348.5 160.5,349.0 160.0,349.5" />
<polygon points="360.0,71.5 359.0,71.5 358.0,71.5 357.0,71.5 356.0,71.5 355.0,71.5 354.5,71.0 354.0,70.5 353.5,70.0 353.0,69.5 352.5,69.0 352.0,68.5 351.5,68.0 351.5,67.0 351.0,66.5 350.5,66.0 351.0,65.5 351.5,65.0 351.5,64.0 351.5,63.0 351.5,62.0 352.0,61.5 352.5,61.0 352.5,60.0 352.5,59.0 353.0,58.5 353.5,58.0 353.5,57.0 353.5,56.0 354.0,55.5 354.5,55.0 354.5,54.0 355.0,53.5 355.5,53.0 355.5,52.0 356.0,51.5 356.5,51.0 356.5,50.0 356.5,49.0 357.0,48.5 357.5,48.0 357.5,47.0 358.0,46.5 358.5,46.0 358.5,45.0 358.5,44.0 359.0,43.5 359.5,43.0 359.5,42.0 360.0,41.5 360.5,41.0 360.5,40.0 360.5,39.0 361.0,38.5 361.5,38.0 361.5,37.0 362.0,36.5 362.5,36.0 362.5,35.0 363.0,34.5 363.5,34.0 363.5,33.0 363.5,32.0 364.0,31.5 364.5,31.0 365.0,30.5 365.5,30.0 366.0,29.5 366.5,29.0 367.0,28.5 367.5,28.0 368.0,27.5 369.0,27.5 370.0,27.5 371.0,27.5 372.0,27.5 373.0,27.5 373.5,28.0 374.0,28.5 375.0,28.5 375.5,29.0 376.0,29.5 376.5,30.0 377.0,30.5 378.0,30.5 378.5,31.0 379.0,31.5 379.5,32.0 380.0,32.5 381.0,32.5 381.5,33.0 382.0,33.5 382.5,34.0 383.0,34.5 383.5,35.0 384.0,35.5 384.5,36.0 385.0,36.5 385.5,37.0 385.5,38.0 386.0,38.5 386.5,39.0 386.5,40.0 386.5,41.0 386.5,42.0 386.0,42.5 385.5,43.0 385.5,44.0 385.0,44.5 384.5,45.0 384.0,45.5 383.5,46.0 383.0,46.5 382.5,47.0 382.0,47.5 381.5,48.0 381.0,48.5 380.5,49.0 380.5,50.0 380.0,50.5 379.5,51.0 379.0,51.5 378.5,52.0 378.0,52.5 377.5,53.0 377.0,53.5 376.5,54.0 376.0,54.5 375.5,55.0 375.0,55.5 374.5,56.0 374.0,56.5 373.5,57.0 373.0,57.5 372.5,58.0 372.0,58.5 371.5,59.0 371.0,59.5 370.5,60.0 370.0,60.5 369.5,61.0 369.0,61.5 368.5,62.0 368.0,62.5 367.5,63.0 367.5,64.0 367.0,64.5 366.5,65.0 366.0,65.5 365.5,66.0 365.0,66.5 364.5,67.0 364.0,67.5 363.5,68.0 363.0,68.5 362.5,69.0 362.0,69.5 361.5,70.0 361.0,70.5 360.5,71.0 360.0,71.5" />
<polygon points="373.0,95.5 372.0,95.5 371.0,95.5 370.0,95.5 369.0,95.5 368.0,95.5 367.5,95.0 367.0,94.5 366.5,94.0 366.0,93.5 365.0,93.5 364.5,93.0 364.5,92.0 364.0,91.5 363.5,91.0 363.5,90.0 363.5,89.0 363.5,88.0 364.0,87.5 364.5,87.0 364.5,86.0 365.0,85.5 365.5,85.0 366.0,84.5 367.0,84.5 367.5,84.0 368.0,83.5 368.5,83.0 369.0,82.5 369.5,82.0 370.0,81.5 371.0,81.5 371.5,81.0 372.0,80.5 372.5,80.0 373.0,79.5 374.0,79.5 374.5,79.0 375.0,78.5 376.0,78.5 376.5,78.0 377.0,77.5 377.5,77.0 378.0,76.5 379.0,76.5 379.5,76.0 380.0,75.5 380.5,75.0 381.0,74.5 382.0,74.5 382.5,74.0 383.0,73.5 384.0,73.5 384.5,73.0 385.0,72.5 386.0,72.5 386.5,72.0 387.0,71.5 387.5,71.0 388.0,70.5 389.0,70.5 389.5,70.0 390.0,69.5 391.0,69.5 391.5,69.0 392.0,68.5 392.5,68.0 393.0,67.5 394.0,67.5 394.5,67.0 395.0,66.5 396.0,66.5 396.5,66.0 397.0,65.5 398.0,65.5 398.5,65.0 399.0,64.5 399.5,64.0 400.0,63.5 401.0,63.5 401.5,63.0 402.0,62.5 403.0,62.5 403.5,62.0 404.0,61.5 404.5,61.0 405.0,60.5 406.0,60.5 406.5,60.0 407.0,59.5 408.0,59.5 408.5,59.0 409.0,58.5 409.5,58.0 410.0,57.5 411.0,57.5 411.5,57.0 412.0,56.5 413.0,56.5 414.0,56.5 414.5,56.0 415.0,55.5 416.0,55.5 417.0,55.5 417.5,56.0 418.0,56.5 419.0,56.5 419.5,57.0 420.0,57.5 421.0,57.5 421.5,58.0 422.0,58.5 422.5,59.0 423.0,59.5 423.5,60.0 424.0,60.5 424.5,61.0 424.5,62.0 425.0,62.5 425.5,63.0 425.5,64.0 426.0,64.5 426.5,65.0 426.5,66.0 427.0,66.5 427.5,67.0 427.5,68.0 427.5,69.0 428.0,69.5 428.5,70.0 428.5,71.0 428.5,72.0 428.5,73.0 428.0,73.5 427.5,74.0 427.5,75.0 427.5,76.0 427.0,76.5 426.5,77.0 426.0,77.5 425.5,78.0 425.0,78.5 424.5,79.0 424.0,79.5 423.0,79.5 422.0,79.5 421.5,80.0 421.0,80.5 420.0,80.5 419.5,81.0 419.0,81.5 418.0,81.5 417.0,81.5 416.5,82.0 416.0,82.5 415.0,82.5 414.0,82.5 413.5,83.0 413.0,83.5 412.0,83.5 411.0,83.5 410.5,84.0 410.0,84.5 409.0,84.5 408.0,84.5 407.0,84.5 406.5,85.0 406.0,85.5 405.0,85.5 404.0,85.5 403.5,86.0 403.0,86.5 402.0,86.5 401.0,86.5 400.5,87.0 400.0,87.5 399.0,87.5 398.0,87.5 397.0,87.5 396.5,88.0 396.0,88.5 395.0,88.5 394.5,89.0 394.0,89.5 393.0,89.5 392.0,89.5 391.0,89.5 390.5,90.0 390.0,90.5 389.0,90.5 388.0,90.5 387.5,91.0 387.0,91.5 386.0,91.5 385.0,91.5 384.0,91.5 383.5,92.0 383.0,92.5 382.0,92.5 381.0,92.5 380.5,93.0 380.0,93.5 379.0,93.5 378.0,93.5 377.5,94.0 377.0,94.5 376.0,94.5 375.0,94.5 374.0,94.5 373.5,95.0 373.0,95.5" />
<polygon points="422.0,136.5 421.0,136.5 420.0,136.5 419.0,136.5 418.5,136.0 418.0,135.5 417.0,135.5 416.0,135.5 415.5,135.0 415.0,134.5 414.0,134.5 413.0,134.5 412.0,134.5 411.5,134.0 411.0,133.5 410.0,133.5 409.0,133.5 408.5,133.0 408.0,132.5 407.0,132.5 406.0,132.5 405.5,132.0 405.0,131.5 404.0,131.5 403.0,131.5 402.5,131.0 402.0,130.5 401.0,130.5 400.0,130.5 399.5,130.0 399.0,129.5 398.0,129.5 397.0,129.5 396.0,129.5 395.5,129.0 395.0,128.5 394.0,128.5 393.0,128.5 392.5,128.0 392.0,127.5 391.0,127.5 390.0,127.5 389.5,127.0 389.0,126.5 388.0,126.5 387.0,126.5 386.5,126.0 386.0,125.5 385.0,125.5 384.0,125.5 383.5,125.0 383.0,124.5 382.0,124.5 381.0,124.5 380.5,124.0 380.0,123.5 379.0,123.5 378.0,123.5 377.5,123.0 377.0,122.5 376.0,122.5 375.0,122.5 374.5,122.0 374.0,121.5 373.0,121.5 372.5,121.0 372.0,120.5 371.0,120.5 370.5,120.0 370.5,119.0 370.0,118.5 369.5,118.0 369.5,117.0 369.5,116.0 369.5,115.0 369.5,114.0 370.0,113.5 370.5,113.0 371.0,112.5 371.5,112.0 372.0,111.5 372.5,111.0 373.0,110.5 374.0,110.5 375.0,110.5 376.0,110.5 377.0,110.5 378.0,110.5 379.0,110.5 380.0,110.5 381.0,110.5 382.0,110.5 383.0,110.5 384.0,110.5 385.0,110.5 386.0,110.5 387.0,110.5 388.0,110.5 389.0,110.5 390.0,110.5 391.0,110.5 392.0,110.5 392.5,111.0 393.0,111.5 394.0,111.5 395.0,111.5 396.0,111.5 397.0,111.5 398.0,111.5 399.0,111.5 400.0,111.5 401.0,111.5 402.0,111.5 403.0,111.5 404.0,111.5 405.0,111.5 406.0,111.5 407.0,111.5 408.0,111.5 408.5,112.0 409.0,112.5 410.0,112.5 411.0,112.5 412.0,112.5 413.0,112.5 414.0,112.5 415.0,112.5 416.0,112.5 417.0,112.5 418.0,112.5 419.0,112.5 420.0,112.5 421.0,112.5 422.0,112.5 423.0,112.5 424.0,112.5 424.5,113.0 425.0,113.5 426.0,113.5 426.5,114.0 427.0,114.5 427.5,115.0 428.0,115.5 428.5,116.0 429.0,116.5 429.5,117.0 429.5,118.0 429.5,119.0 430.0,119.5 430.5,120.0 430.5,121.0 430.5,122.0 430.5,123.0 430.5,124.0 430.0,124.5 429.5,125.0 429.5,126.0 429.5,127.0 429.5,128.0 429.0,128.5 428.5,129.0 428.5,130.0 428.5,131.0 428.0,131.5 427.5,132.0 427.5,133.0 427.0,133.5 426.5,134.0 426.0,134.5 425.5,135.0 425.0,135.5 424.0,135.5 423.0,135.5 422.5,136.0 422.0,136.5" />
<polygon points="395.0,155.5 394.0,155.5 393.0,155.5 392.0,155.5 391.5,155.0 391.0,154.5 390.5,154.0 390.0,153.5 389.5,153.0 389.0,152.5 388.5,152.0 388.0,151.5 387.0,151.5 386.5,151.0 386.0,150.5 385.5,150.0 385.0,149.5 384.5,149.0 384.0,148.5 383.0,148.5 382.5,148.0 382.0,147.5 381.5,147.0 381.0,146.5 380.5,146.0 380.0,145.5 379.5,145.0 379.0,144.5 378.5,144.0 378.0,143.5 377.0,143.5 376.5,143.0 376.0,142.5 375.5,142.0 375.5,141.0 375.0,140.5 374.5,140.0 374.5,139.0 374.5,138.0 374.5,137.0 374.5,136.0 375.0,135.5 375.5,135.0 376.0,134.5 377.0,134.5 378.0,134.5 379.0,134.5 380.0,134.5 380.5,135.0 381.0,135.5 381.5,136.0 382.0,136.5 383.0,136.5 383.5,137.0 384.0,137.5 385.0,137.5 386.0,137.5 386.5,138.0 387.0,138.5 387.5,139.0 388.0,139.5 389.0,139.5 389.5,140.0 390.0,140.5 391.0,140.5 391.5,141.0 392.0,141.5 392.5,142.0 393.0,142.5 394.0,142.5 394.5,143.0 395.0,143.5 396.0,143.5 396.5,144.0 397.0,144.5 397.5,145.0 398.0,145.5 398.5,146.0 398.5,147.0 399.0,147.5 399.5,148.0 399.5,149.0 399.0,149.5 398.5,150.0 398.5,151.0 398.5,152.0 398.0,152.5 397.5,153.0 397.0,153.5 396.5,154.0 396.0,154.5 395.5,155.0 395.0,155.5" />
<polygon points="165.5,196.0 166.0,195.5 167.0,195.5 168.0,195.5 169.0,195.5 170.0,195.5 171.0,195.5 172.0,195.5 172.5,195.0 173.0,194.5 174.0,194.5 175.0,194.5 176.0,194.5 176.5,194.0 177.0,193.5 178.0,193.5 179.0,193.5 180.0,193.5 181.0,193.5 182.0,193.5 183.0,193.5 184.0,193.5 184.5,193.0 185.0,192.5 186.0,192.5 187.0,192.5 188.0,192.5 189.0,192.5 189.5,192.0 190.0,191.5 191.0,191.5 192.0,191.5 193.0,191.5 194.0,191.5 195.0,191.5 196.0,191.5 197.0,191.5 198.0,191.5 199.0,191.5 199.5,191.0 200.0,190.5 201.0,190.5 202.0,190.5 203.0,190.5 204.0,190.5 205.0,190.5 206.0,190.5 207.0,190.5 207.5,190.0 208.0,189.5 209.0,189.5 210.0,189.5 211.0,189.5 212.0,189.5 213.0,189.5 214.0,189.5 215.0,189.5 216.0,189.5 217.0,189.5 217.5,189.0 218.0,188.5 219.0,188.5 220.0,188.5 221.0,188.5 222.0,188.5 223.0,188.5 224.0,188.5 225.0,188.5 226.0,188.5 227.0,188.5 228.0,188.5 229.0,188.5 230.0,188.5 231.0,188.5 232.0,188.5 233.0,188.5 234.0,188.5 235.0,188.5 236.0,188.5 237.0,188.5 238.0,188.5 239.0,188.5 240.0,188.5 241.0,188.5 242.0,188.5 243.0,188.5 244.0,188.5 245.0,188.5 246.0,188.5 247.0,188.5 248.0,188.5 249.0,188.5 250.0,188.5 251.0,188.5 252.0,188.5 253.0,188.5 254.0,188.5 255.0,188.5 256.0,188.5 257.0,188.5 258.0,188.5 259.0,188.5 260.0,188.5 261.0,188.5 262.0,188.5 263.0,188.5 264.0,188.5 265.0,188.5 265.5,188.0 265.5,187.0 265.0,186.5 264.5,186.0 264.0,185.5 263.5,185.0 263.0,184.5 262.5,184.0 262.5,183.0 262.0,182.5 261.5,182.0 261.0,181.5 260.5,181.0 260.5,180.0 260.0,179.5 259.5,179.0 259.0,178.5 258.5,178.0 258.5,177.0 258.0,176.5 257.5,176.0 257.0,175.5 256.5,175.0 256.5,174.0 256.0,173.5 255.5,173.0 255.0,172.5 254.5,172.0 254.5,171.0 254.0,170.5 253.5,170.0 253.5,169.0 253.0,168.5 252.5,168.0 252.0,167.5 251.5,167.0 251.5,166.0 251.0,165.5 250.5,165.0 250.5,164.0 250.0,163.5 249.5,163.0 249.5,162.0 249.0,161.5 248.5,161.0 248.5,160.0 248.0,159.5 247.5,159.0 247.5,158.0 247.0,157.5 246.5,157.0 246.5,156.0 246.0,155.5 245.5,155.0 245.5,154.0 245.0,153.5 244.5,154.0 244.0,154.5 243.0,154.5 242.5,155.0 242.0,155.5 241.0,155.5 240.0,155.5 239.5,156.0 239.0,156.5 238.0,156.5 237.0,156.5 236.5,157.0 236.0,157.5 235.0,157.5 234.5,158.0 234.0,158.5 233.0,158.5 232.0,158.5 231.5,159.0 231.0,159.5 230.0,159.5 229.0,159.5 228.5,160.0 228.0,160.5 227.0,160.5 226.0,160.5 225.5,161.0 225.0,161.5 224.0,161.5 223.5,162.0 223.0,162.5 222.0,162.5 221.0,162.5 220.0,162.5 219.5,163.0 219.0,163.5 218.0,163.5 217.0,163.5 216.5,164.0 216.0,164.5 215.0,164.5 214.5,165.0 214.0,165.5 213.0,165.5 212.0,165.5 211.0,165.5 210.5,166.0 210.0,166.5 209.0,166.5 208.5,167.0 208.0,167.5 207.0,167.5 206.0,167.5 205.0,167.5 204.5,168.0 204.0,168.5 203.0,168.5 202.0,168.5 201.5,169.0 201.0,169.5 200.0,169.5 199.0,169.5 198.5,170.0 198.0,170.5 197.0,170.5 196.0,170.5 195.0,170.5 194.5,171.0 194.0,171.5 193.0,171.5 192.5,172.0 192.0,172.5 191.0,172.5 190.0,172.5 189.0,172.5 188.0,172.5 187.5,173.0 187.0,173.5 186.0,173.5 185.0,173.5 184.5,174.0 184.0,174.5 183.0,174.5 182.0,174.5 181.0,174.5 180.5,175.0 180.0,175.5 179.0,175.5 178.0,175.5 177.5,176.0 177.0,176.5 176.0,176.5 175.0,176.5 174.5,177.0 174.0,177.5 173.0,177.5 172.0,177.5 171.0,177.5 170.5,178.0 170.0,178.5 169.0,178.5 168.0,178.5 167.5,179.0 167.0,179.5 166.0,179.5 165.0,179.5 164.0,179.5 163.5,180.0 163.0,180.5 162.0,180.5 161.0,180.5 160.5,181.0 160.0,181.5 159.0,181.5 158.0,181.5 157.0,181.5 156.5,182.0 156.0,182.5 155.0,182.5 154.0,182.5 153.0,182.5 152.5,183.0 152.0,183.5 151.5,184.0 152.0,184.5 152.5,185.0 152.5,186.0 153.0,186.5 153.5,187.0 154.0,187.5 154.5,188.0 155.0,188.5 155.5,189.0 156.0,189.5 156.5,190.0 157.0,190.5 157.5,191.0 158.0,191.5 158.5,192.0 159.0,192.5 159.5,193.0 160.0,193.5 160.5,194.0 161.0,194.5 161.5,195.0 162.0,195.5 163.0,195.5 163.5,196.0 164.0,196.5 165.0,196.5 165.5,196.0" />
<polygon points="70.5,217.0 70.0,216.5 69.5,216.0 69.0,215.5 68.5,215.0 68.0,214.5 67.5,214.0 67.0,213.5 66.5,213.0 66.0,212.5 65.5,212.0 65.0,211.5 64.5,211.0 64.0,210.5 63.5,210.0 63.5,209.0 63.0,208.5 62.5,208.0 62.0,207.5 61.5,207.0 61.0,206.5 60.5,206.0 60.5,205.0 60.0,204.5 59.5,204.0 59.0,203.5 58.5,203.0 58.5,202.0 58.0,201.5 57.5,201.0 57.5,200.0 57.0,199.5 56.5,199.0 56.5,198.0 56.0,197.5 55.5,197.0 55.5,196.0 55.0,195.5 54.5,195.0 54.5,194.0 54.0,193.5 53.5,193.0 53.5,192.0 53.0,191.5 52.5,191.0 52.5,190.0 52.5,189.0 52.0,188.5 51.5,188.0 51.5,187.0 51.0,186.5 50.5,186.0 50.5,185.0 50.5,184.0 50.0,183.5 49.5,183.0 49.5,182.0 49.5,181.0 49.5,180.0 49.0,179.5 48.5,179.0 48.5,178.0 48.5,177.0 48.0,176.5 47.5,176.0 47.5,175.0 47.5,174.0 47.5,173.0 47.5,172.0 47.0,171.5 46.5,171.0 46.5,170.0 46.5,169.0 46.0,168.5 45.5,169.0 45.0,169.5 44.0,169.5 43.5,170.0 43.0,170.5 42.5,171.0 42.0,171.5 41.5,172.0 41.0,172.5 40.5,173.0 40.0,173.5 39.5,174.0 39.0,174.5 38.5,175.0 38.0,175.5 37.5,176.0 37.0,176.5 36.5,177.0 36.0,177.5 35.5,178.0 35.0,178.5 34.5,179.0 34.0,179.5 33.5,180.0 33.5,181.0 34.0,181.5 34.5,182.0 34.5,183.0 34.5,184.0 34.5,185.0 35.0,185.5 35.5,186.0 35.5,187.0 35.5,188.0 35.5,189.0 36.0,189.5 36.5,190.0 36.5,191.0 36.5,192.0 37.0,192.5 37.5,193.0 37.5,194.0 38.0,194.5 38.5,195.0 38.5,196.0 39.0,196.5 39.5,197.0 39.5,198.0 40.0,198.5 40.5,199.0 40.5,200.0 41.0,200.5 41.5,201.0 42.0,201.5 42.5,202.0 43.0,202.5 43.5,203.0 43.5,204.0 44.0,204.5 44.5,205.0 45.0,205.5 45.5,206.0 46.0,206.5 46.5,207.0 47.0,207.5 47.5,208.0 48.0,208.5 48.5,209.0 49.0,209.5 49.5,210.0 50.0,210.5 50.5,211.0 51.0,211.5 52.0,211.5 52.5,212.0 53.0,212.5 54.0,212.5 54.5,213.0 55.0,213.5 56.0,213.5 56.5,214.0 57.0,214.5 58.0,214.5 58.5,215.0 59.0,215.5 60.0,215.5 61.0,215.5 61.5,216.0 62.0,216.5 63.0,216.5 64.0,216.5 65.0,216.5 66.0,216.5 66.5,217.0 67.0,217.5 68.0,217.5 69.0,217.5 70.0,217.5 70.5,217.0" />
</g>
</svg>